REM DIRINDEX 1\4,1\2\5,1\2\6,1\3\7,1\3\8
REM DIRNAME cjc124,folder01,folder02,folder03,folder04,folder05,folder06,folder07
TITLE ""
FILE "066_Day33_Check3_Sentences.mp3" MP3
  TRACK 01 AUDIO
    TITLE "0:"
    INDEX 01 00:00:00
  TRACK 02 AUDIO
    TITLE "4:cjc124_2148"
    INDEX 01 00:00:25
  TRACK 03 AUDIO
    TITLE "0:"
    INDEX 01 00:02:00
  TRACK 04 AUDIO
    TITLE "7:cjc124_2149"
    INDEX 01 00:02:63
  TRACK 05 AUDIO
    TITLE "0:"
    INDEX 01 00:05:57
  TRACK 06 AUDIO
    TITLE "8:cjc124_2150"
    INDEX 01 00:05:73
  TRACK 07 AUDIO
    TITLE "0:"
    INDEX 01 00:09:12
  TRACK 08 AUDIO
    TITLE "7:cjc124_2151"
    INDEX 01 00:09:49
  TRACK 09 AUDIO
    TITLE "0:"
    INDEX 01 00:12:73
  TRACK 10 AUDIO
    TITLE "8:cjc124_2152"
    INDEX 01 00:13:16
  TRACK 11 AUDIO
    TITLE "0:"
    INDEX 01 00:16:28
  TRACK 12 AUDIO
    TITLE "7:cjc124_2153"
    INDEX 01 00:16:65
  TRACK 13 AUDIO
    TITLE "0:"
    INDEX 01 00:20:08
  TRACK 14 AUDIO
    TITLE "8:cjc124_2154"
    INDEX 01 00:20:26
  TRACK 15 AUDIO
    TITLE "0:"
    INDEX 01 00:24:37
  TRACK 16 AUDIO
    TITLE "7:cjc124_2155"
    INDEX 01 00:24:74
  TRACK 17 AUDIO
    TITLE "0:"
    INDEX 01 00:28:70
  TRACK 18 AUDIO
    TITLE "8:cjc124_2156"
    INDEX 01 00:29:11
  TRACK 19 AUDIO
    TITLE "0:"
    INDEX 01 00:32:70
  TRACK 20 AUDIO
    TITLE "7:cjc124_2157"
    INDEX 01 00:33:32
  TRACK 21 AUDIO
    TITLE "0:"
    INDEX 01 00:37:42
  TRACK 22 AUDIO
    TITLE "8:cjc124_2158"
    INDEX 01 00:37:71
  TRACK 23 AUDIO
    TITLE "0:"
    INDEX 01 00:41:73
  TRACK 24 AUDIO
    TITLE "7:cjc124_2159"
    INDEX 01 00:42:35
  TRACK 25 AUDIO
    TITLE "0:"
    INDEX 01 00:45:16
  TRACK 26 AUDIO
    TITLE "8:cjc124_2160"
    INDEX 01 00:45:33
  TRACK 27 AUDIO
    TITLE "0:"
    INDEX 01 00:48:30
  TRACK 28 AUDIO
    TITLE "7:cjc124_2161"
    INDEX 01 00:48:69
  TRACK 29 AUDIO
    TITLE "0:"
    INDEX 01 00:51:71
  TRACK 30 AUDIO
    TITLE "8:cjc124_2162"
    INDEX 01 00:52:12
  TRACK 31 AUDIO
    TITLE "0:"
    INDEX 01 00:55:12
  TRACK 32 AUDIO
    TITLE "7:cjc124_2163"
    INDEX 01 00:55:48
  TRACK 33 AUDIO
    TITLE "0:"
    INDEX 01 00:59:12
  TRACK 34 AUDIO
    TITLE "8:cjc124_2164"
    INDEX 01 00:59:34
  TRACK 35 AUDIO
    TITLE "0:"
    INDEX 01 01:03:06
  TRACK 36 AUDIO
    TITLE "7:cjc124_2165"
    INDEX 01 01:03:43
  TRACK 37 AUDIO
    TITLE "0:"
    INDEX 01 01:06:34
  TRACK 38 AUDIO
    TITLE "8:cjc124_2166"
    INDEX 01 01:06:59
  TRACK 39 AUDIO
    TITLE "0:"
    INDEX 01 01:09:61
  TRACK 40 AUDIO
    TITLE "7:cjc124_2167"
    INDEX 01 01:10:24
  TRACK 41 AUDIO
    TITLE "0:"
    INDEX 01 01:15:35
  TRACK 42 AUDIO
    TITLE "8:cjc124_2168"
    INDEX 01 01:15:52
  TRACK 43 AUDIO
    TITLE "0:"
    INDEX 01 01:19:52
  TRACK 44 AUDIO
    TITLE "7:cjc124_2169"
    INDEX 01 01:20:12
  TRACK 45 AUDIO
    TITLE "0:"
    INDEX 01 01:22:25
  TRACK 46 AUDIO
    TITLE "8:cjc124_2170"
    INDEX 01 01:22:44
  TRACK 47 AUDIO
    TITLE "0:"
    INDEX 01 01:24:71
  TRACK 48 AUDIO
    TITLE "7:cjc124_2171"
    INDEX 01 01:25:35
  TRACK 49 AUDIO
    TITLE "0:"
    INDEX 01 01:27:55
  TRACK 50 AUDIO
    TITLE "8:cjc124_2172"
    INDEX 01 01:28:04
  TRACK 51 AUDIO
    TITLE "0:"
    INDEX 01 01:30:30
  TRACK 52 AUDIO
    TITLE "7:cjc124_2173"
    INDEX 01 01:30:67
  TRACK 53 AUDIO
    TITLE "0:"
    INDEX 01 01:33:17
  TRACK 54 AUDIO
    TITLE "8:cjc124_2174"
    INDEX 01 01:33:36
  TRACK 55 AUDIO
    TITLE "0:"
    INDEX 01 01:35:59
  TRACK 56 AUDIO
    TITLE "7:cjc124_2175"
    INDEX 01 01:36:23
  TRACK 57 AUDIO
    TITLE "0:"
    INDEX 01 01:39:23
  TRACK 58 AUDIO
    TITLE "8:cjc124_2176"
    INDEX 01 01:39:43
  TRACK 59 AUDIO
    TITLE "0:"
    INDEX 01 01:42:61
  TRACK 60 AUDIO
    TITLE "7:cjc124_2177"
    INDEX 01 01:43:23
  TRACK 61 AUDIO
    TITLE "0:"
    INDEX 01 01:46:12
  TRACK 62 AUDIO
    TITLE "8:cjc124_2178"
    INDEX 01 01:46:31
  TRACK 63 AUDIO
    TITLE "0:"
    INDEX 01 01:48:67
  TRACK 64 AUDIO
    TITLE "7:cjc124_2179"
    INDEX 01 01:49:28
  TRACK 65 AUDIO
    TITLE "0:"
    INDEX 01 01:51:74
  TRACK 66 AUDIO
    TITLE "8:cjc124_2180"
    INDEX 01 01:52:14
  TRACK 67 AUDIO
    TITLE "0:"
    INDEX 01 01:54:60
